<svg xmlns="http://www.w3.org/2000/svg" xmlns:svgjs="http://svgjs.dev/svgjs" xmlns:xlink="http://www.w3.org/1999/xlink" width="100%" height="100%" version="1.1" viewBox="0 0 1000 600"><rect width="1000" height="600" x="0" y="0" fill="#fff"/><g><rect width="333.333" height="333.333" x="87.219" y="109.442" fill="#8000ff" rx="13.333" ry="13.333" transform="matrix(1.4331676213731452,0,0,1.433167621373145,0,-95.70945727992847)"/><path fill="red" d="M241.16564880450647 291.84536742856307L241.16564880450647 291.84536742856307L228.95047176688223 291.84536742856307L228.95047176688223 293.1233543205773L231.53616617630632 348.7603650612891L202.85576266947572 348.7603650612891L205.41173645350415 296.7492706188502L202.85576266947572 201.10829809555383L249.27937953752695 201.10829809555383Q269.8460523113371 201.10829809555383 282.03150872356565 212.22381199353796Q294.2169651357942 223.36904651691773 294.2169651357942 241.76611363684327L294.2169651357942 241.76611363684327Q294.2169651357942 255.67536632202126 287.0542944154355 267.11780709935783Q279.89162369507676 278.5602478766944 267.7061672828482 285.21766796532654L267.7061672828482 285.21766796532654L304.9163902782388 337.8528955410748L279.029725558602 351.1082944675478L245.65346323925405 291.6373230507933Q244.1674319694701 291.84536742856307 241.16564880450647 291.84536742856307ZM241.581737560046 222.7151927582128L241.581737560046 222.7151927582128L231.09035679537118 222.7151927582128L229.60432552558717 271.0706502769832L244.1674319694701 271.0706502769832Q254.86685711191467 271.0706502769832 260.7515409402592 264.02686205820714Q266.6362247686037 256.9533532140355 266.6362247686037 243.90599866533222L266.6362247686037 243.90599866533222Q266.6362247686037 222.7151927582128 241.581737560046 222.7151927582128Z" transform="matrix(1.4331676213731452,0,0,1.433167621373145,0,-95.70945727992847)"/><path fill="#000" d="M503.88607425876614 206.4201196103858L534.0454278841169 201.10829607558824L531.7141275549557 270.36857294319884L585.8947276098909 201.5214379060725L607.5846737103143 215.98140197302143L558.7158971901766 272.69987327236L610.5356867852017 334.1104553607697L583.3568563654876 351.10829067212194L531.5075566397136 277.8051258919154L531.0944148092292 293.534025581066L533.6322860536325 348.77699034296074L503.88607425876614 348.77699034296074L506.4239455031694 297.1342615324288L503.88607425876614 206.4201196103858Z" transform="matrix(1.4331676213731452,0,0,1.433167621373145,0,-95.70945727992847)"/></g></svg>